<?xml version="1.0" encoding="UTF-8"?>
<svg width="1029px" height="402px" viewBox="0 0 1029 402" version="1.1" xmlns="http://www.w3.org/2000/svg" xmlns:xlink="http://www.w3.org/1999/xlink">
    <!-- Generator: Sketch 48.2 (47327) - http://www.bohemiancoding.com/sketch -->
    <title>Group 3</title>
    <desc>Created with Sketch.</desc>
    <defs></defs>
    <g id="Page-1" stroke="none" stroke-width="1" fill="none" fill-rule="evenodd">
        <g id="Group-3" fill="#14B57C">
            <path d="M66.8074072,324.242629 L43.8216001,324.242629 L43.8216001,317.102357 L97.6181691,317.102357 L97.6181691,324.242629 L74.6323626,324.242629 L74.6323626,385.570718 L66.8074072,385.570718 L66.8074072,324.242629 Z M118.833242,314.167999 L126.364762,314.167999 L126.364762,343.805018 C128.060177,341.06627 130.277226,338.735108 133.015974,336.811464 C135.754723,334.887819 139.308521,333.926012 143.677476,333.926012 C146.742266,333.926012 149.464671,334.415066 151.844773,335.393191 C154.224876,336.371315 156.246302,337.756971 157.909114,339.550198 C159.571925,341.343426 160.843467,343.478966 161.72378,345.95688 C162.604091,348.434796 163.044241,351.173502 163.044241,354.173084 L163.044241,385.570718 L155.512721,385.570718 L155.512721,356.031511 C155.512721,351.336514 154.306386,347.619697 151.893679,344.880949 C149.480972,342.142201 146.024985,340.772848 141.525613,340.772848 C139.37374,340.772848 137.368615,341.147789 135.510178,341.897685 C133.651743,342.64758 132.037862,343.723501 130.668487,345.125479 C129.299114,346.527457 128.239495,348.206546 127.489599,350.162794 C126.739704,352.119043 126.364762,354.270884 126.364762,356.618382 L126.364762,385.570718 L118.833242,385.570718 L118.833242,314.167999 Z M224.166586,357.303066 C223.970962,355.020776 223.481907,352.852633 222.699407,350.798572 C221.916908,348.74451 220.85729,346.935008 219.520519,345.370009 C218.18375,343.80501 216.553566,342.566071 214.629922,341.653155 C212.706278,340.740239 210.505531,340.283788 208.027616,340.283788 C205.875743,340.283788 203.854316,340.707636 201.963276,341.555343 C200.072235,342.403051 198.409449,343.593085 196.974866,345.125479 C195.540284,346.657874 194.350251,348.467377 193.404731,350.554042 C192.45921,352.640707 191.856042,354.890359 191.59521,357.303066 L224.166586,357.303066 Z M191.59521,363.367407 C191.856042,366.040946 192.508116,368.421014 193.551449,370.507679 C194.594781,372.594344 195.931531,374.354941 197.561738,375.789524 C199.191945,377.224106 201.01775,378.316328 203.039207,379.066224 C205.060664,379.816119 207.179901,380.191061 209.396983,380.191061 C212.918231,380.191061 215.934069,379.538988 218.444588,378.234822 C220.955107,376.930657 223.253665,375.202662 225.34033,373.050789 L230.035304,377.256703 C227.492181,380.125867 224.590455,382.424425 221.33004,384.152445 C218.069626,385.880464 214.026773,386.744461 209.201359,386.744461 C205.74532,386.744461 202.484954,386.10869 199.420165,384.837128 C196.355376,383.565567 193.681876,381.772365 191.399586,379.457471 C189.117295,377.142577 187.307793,374.354964 185.971023,371.09455 C184.634253,367.834136 183.965878,364.247734 183.965878,360.335237 C183.965878,356.683572 184.569045,353.243887 185.775399,350.016076 C186.981752,346.788266 188.66084,343.984352 190.812714,341.604249 C192.964587,339.224146 195.523974,337.349437 198.490952,335.980062 C201.457929,334.610688 204.701992,333.926012 208.22324,333.926012 C211.940113,333.926012 215.265685,334.62699 218.200058,336.028968 C221.134431,337.430947 223.612309,339.33826 225.633766,341.750967 C227.655223,344.163673 229.187595,347.000192 230.230928,350.260606 C231.27426,353.521021 231.795919,357.009612 231.795919,360.726485 L231.795919,361.851322 C231.795919,362.275175 231.763315,362.780532 231.698107,363.367407 L191.59521,363.367407 Z M316.2852,354.368707 C319.089157,354.368707 321.648544,354.010068 323.963438,353.292776 C326.278332,352.575485 328.267155,351.54847 329.929966,350.2117 C331.592778,348.87493 332.86432,347.293653 333.744632,345.467821 C334.624944,343.641989 335.065093,341.587958 335.065093,339.305668 L335.065093,339.110044 C335.065093,334.219423 333.386005,330.518908 330.027778,328.008389 C326.669551,325.49787 322.219152,324.242629 316.676448,324.242629 L299.363734,324.242629 L299.363734,354.368707 L316.2852,354.368707 Z M291.636591,317.102357 L317.26332,317.102357 C321.110608,317.102357 324.615501,317.607714 327.778103,318.618443 C330.940705,319.629171 333.646809,321.063732 335.896495,322.922168 C338.146181,324.780604 339.874175,327.046558 341.080528,329.720098 C342.286881,332.393638 342.890049,335.425778 342.890049,338.816609 L342.890049,339.012233 C342.890049,342.729105 342.172769,345.973169 340.738187,348.744521 C339.303603,351.515873 337.363686,353.847034 334.918375,355.738075 C332.473065,357.629115 329.620245,359.047375 326.35983,359.992895 C323.099416,360.938414 319.643428,361.411168 315.991764,361.411168 L299.363734,361.411168 L299.363734,385.570718 L291.636591,385.570718 L291.636591,317.102357 Z M400.784601,357.303066 C400.588976,355.020776 400.099921,352.852633 399.317422,350.798572 C398.534922,348.74451 397.475303,346.935008 396.138533,345.370009 C394.801764,343.80501 393.171581,342.566071 391.247936,341.653155 C389.324292,340.740239 387.123545,340.283788 384.64563,340.283788 C382.493756,340.283788 380.47233,340.707636 378.58129,341.555343 C376.690249,342.403051 375.027463,343.593085 373.592881,345.125479 C372.158298,346.657874 370.968264,348.467377 370.022745,350.554042 C369.077225,352.640707 368.474057,354.890359 368.213223,357.303066 L400.784601,357.303066 Z M368.213223,363.367407 C368.474057,366.040946 369.12613,368.421014 370.169463,370.507679 C371.212795,372.594344 372.549545,374.354941 374.179752,375.789524 C375.809959,377.224106 377.635764,378.316328 379.657221,379.066224 C381.678678,379.816119 383.797916,380.191061 386.014997,380.191061 C389.536245,380.191061 392.552083,379.538988 395.062602,378.234822 C397.573121,376.930657 399.871679,375.202662 401.958344,373.050789 L406.653317,377.256703 C404.110194,380.125867 401.208469,382.424425 397.948054,384.152445 C394.68764,385.880464 390.644787,386.744461 385.819374,386.744461 C382.363334,386.744461 379.102969,386.10869 376.038179,384.837128 C372.973389,383.565567 370.29989,381.772365 368.017599,379.457471 C365.735309,377.142577 363.925807,374.354964 362.589036,371.09455 C361.252267,367.834136 360.583892,364.247734 360.583892,360.335237 C360.583892,356.683572 361.18706,353.243887 362.393413,350.016076 C363.599766,346.788266 365.278855,343.984352 367.430728,341.604249 C369.582601,339.224146 372.141989,337.349437 375.108966,335.980062 C378.075942,334.610688 381.320007,333.926012 384.841254,333.926012 C388.558126,333.926012 391.883699,334.62699 394.818072,336.028968 C397.752445,337.430947 400.230323,339.33826 402.25178,341.750967 C404.273237,344.163673 405.805609,347.000192 406.848941,350.260606 C407.892274,353.521021 408.413932,357.009612 408.413932,360.726485 L408.413932,361.851322 C408.413932,362.275175 408.381329,362.780532 408.31612,363.367407 L368.213223,363.367407 Z M452.908248,379.995437 C455.646996,379.995437 458.157477,379.473778 460.439768,378.430446 C462.722058,377.387113 464.678278,375.985156 466.308484,374.224533 C467.938691,372.463909 469.210234,370.409878 470.12315,368.06238 C471.036066,365.714882 471.492517,363.2044 471.492517,360.530861 L471.492517,360.335237 C471.492517,357.596488 471.019764,355.037101 470.074244,352.656998 C469.128724,350.276896 467.808276,348.190263 466.112861,346.397034 C464.417445,344.603806 462.428622,343.185548 460.146332,342.142215 C457.864042,341.098883 455.386164,340.577224 452.712625,340.577224 C449.973876,340.577224 447.463395,341.098883 445.181104,342.142215 C442.898814,343.185548 440.958897,344.587505 439.361294,346.348128 C437.763691,348.108752 436.50845,350.179084 435.595534,352.559187 C434.682618,354.939289 434.226167,357.466073 434.226167,360.139613 L434.226167,360.335237 C434.226167,363.073985 434.69892,365.633372 435.64444,368.013474 C436.58996,370.393577 437.894107,372.463909 439.556917,374.224533 C441.219729,375.985156 443.19225,377.387113 445.47454,378.430446 C447.756831,379.473778 450.234708,379.995437 452.908248,379.995437 Z M452.712625,386.744461 C448.930544,386.744461 445.441952,386.043483 442.246746,384.641504 C439.05154,383.239526 436.280229,381.348514 433.932731,378.968412 C431.585232,376.588309 429.759428,373.816999 428.455262,370.654397 C427.151096,367.491795 426.499023,364.117316 426.499023,360.530861 L426.499023,360.335237 C426.499023,356.748781 427.151096,353.358 428.455262,350.162794 C429.759428,346.967588 431.585232,344.163673 433.932731,341.750967 C436.280229,339.33826 439.067842,337.430947 442.295652,336.028968 C445.523463,334.62699 449.060959,333.926012 452.908248,333.926012 C456.690328,333.926012 460.195221,334.62699 463.423032,336.028968 C466.650842,337.430947 469.438455,339.321958 471.785953,341.702061 C474.133452,344.082163 475.959256,346.853474 477.263422,350.016076 C478.567588,353.178678 479.219661,356.553157 479.219661,360.139613 L479.219661,360.335237 C479.219661,363.921692 478.551286,367.312473 477.214516,370.507679 C475.877746,373.702885 474.03564,376.506799 471.688141,378.919506 C469.340643,381.332212 466.536728,383.239526 463.276314,384.641504 C460.0159,386.043483 456.494705,386.744461 452.712625,386.744461 Z M526.354899,379.897625 C528.767606,379.897625 531.066164,379.457475 533.250641,378.577164 C535.435118,377.696852 537.326131,376.425309 538.923734,374.762498 C540.521337,373.099686 541.79288,371.061958 542.7384,368.649252 C543.68392,366.236545 544.156673,363.497838 544.156673,360.433049 L544.156673,360.237425 C544.156673,357.237843 543.68392,354.53174 542.7384,352.119033 C541.79288,349.706326 540.505035,347.652296 538.874828,345.95688 C537.24462,344.261465 535.353609,342.957319 533.201735,342.044403 C531.049862,341.131487 528.767606,340.675036 526.354899,340.675036 C524.007401,340.675036 521.741447,341.147789 519.556969,342.093309 C517.372491,343.038829 515.416272,344.375579 513.688252,346.103598 C511.960232,347.831618 510.590879,349.885648 509.580151,352.265751 C508.569422,354.645853 508.064065,357.270447 508.064065,360.139613 L508.064065,360.335237 C508.064065,363.269609 508.569422,365.943109 509.580151,368.355816 C510.590879,370.768523 511.960232,372.822553 513.688252,374.517968 C515.416272,376.213383 517.372491,377.533832 519.556969,378.479352 C521.741447,379.424872 524.007401,379.897625 526.354899,379.897625 Z M500.825982,335.001943 L508.357501,335.001943 L508.357501,345.174385 C509.400834,343.674595 510.558264,342.240034 511.829825,340.870659 C513.101387,339.501285 514.519646,338.311252 516.084645,337.300524 C517.649644,336.289795 519.393939,335.474704 521.317584,334.855225 C523.241228,334.235746 525.376768,333.926012 527.724266,333.926012 C530.723847,333.926012 533.674478,334.512878 536.576247,335.686627 C539.478016,336.860375 542.070006,338.572068 544.352297,340.821753 C546.634587,343.071439 548.460391,345.810147 549.829766,349.037957 C551.199139,352.265767 551.883816,355.966282 551.883816,360.139613 L551.883816,360.335237 C551.883816,364.443358 551.199139,368.127571 549.829766,371.387986 C548.460391,374.6484 546.650889,377.40341 544.401203,379.653095 C542.151517,381.902781 539.575828,383.630775 536.674059,384.837128 C533.77229,386.043482 530.789056,386.646649 527.724266,386.646649 C525.376768,386.646649 523.224927,386.353217 521.268678,385.766342 C519.312429,385.179467 517.551832,384.396979 515.986833,383.418855 C514.421834,382.440731 513.003575,381.299603 511.732013,379.995437 C510.460452,378.691272 509.335626,377.321918 508.357501,375.887336 L508.357501,401.220629 L500.825982,401.220629 L500.825982,335.001943 Z M574.468257,314.167999 L581.999776,314.167999 L581.999776,385.570718 L574.468257,385.570718 L574.468257,314.167999 Z M644.589301,357.303066 C644.393676,355.020776 643.904621,352.852633 643.122122,350.798572 C642.339623,348.74451 641.280004,346.935008 639.943234,345.370009 C638.606464,343.80501 636.976281,342.566071 635.052637,341.653155 C633.128992,340.740239 630.928246,340.283788 628.450331,340.283788 C626.298457,340.283788 624.277031,340.707636 622.38599,341.555343 C620.49495,342.403051 618.832163,343.593085 617.397581,345.125479 C615.962999,346.657874 614.772965,348.467377 613.827445,350.554042 C612.881925,352.640707 612.278758,354.890359 612.017924,357.303066 L644.589301,357.303066 Z M612.017924,363.367407 C612.278758,366.040946 612.93083,368.421014 613.974163,370.507679 C615.017495,372.594344 616.354246,374.354941 617.984453,375.789524 C619.61466,377.224106 621.440464,378.316328 623.461921,379.066224 C625.483379,379.816119 627.602616,380.191061 629.819698,380.191061 C633.340945,380.191061 636.356784,379.538988 638.867302,378.234822 C641.377822,376.930657 643.676379,375.202662 645.763045,373.050789 L650.458018,377.256703 C647.914895,380.125867 645.013169,382.424425 641.752755,384.152445 C638.492341,385.880464 634.449488,386.744461 629.624074,386.744461 C626.168034,386.744461 622.907669,386.10869 619.84288,384.837128 C616.77809,383.565567 614.10459,381.772365 611.8223,379.457471 C609.54001,377.142577 607.730507,374.354964 606.393738,371.09455 C605.056967,367.834136 604.388593,364.247734 604.388593,360.335237 C604.388593,356.683572 604.99176,353.243887 606.198114,350.016076 C607.404467,346.788266 609.083555,343.984352 611.235429,341.604249 C613.387302,339.224146 615.946689,337.349437 618.913666,335.980062 C621.880644,334.610688 625.124707,333.926012 628.645954,333.926012 C632.362827,333.926012 635.6884,334.62699 638.622773,336.028968 C641.557146,337.430947 644.035024,339.33826 646.056481,341.750967 C648.077937,344.163673 649.610309,347.000192 650.653642,350.260606 C651.696974,353.521021 652.218633,357.009612 652.218633,360.726485 L652.218633,361.851322 C652.218633,362.275175 652.186029,362.780532 652.120821,363.367407 L612.017924,363.367407 Z M670.010288,335.88225 C672.488203,334.969334 674.2488,333.844508 675.292133,332.507738 C676.335465,331.170969 676.759313,329.459277 676.563689,327.372611 L673.042458,327.372611 L673.042458,317.102357 L682.041157,317.102357 L682.041157,325.905432 C682.041157,329.883138 681.160859,332.898976 679.400235,334.953037 C677.63961,337.007098 674.900904,338.457961 671.184031,339.305668 L670.010288,335.88225 Z M722.133935,386.548837 C718.482271,386.548837 714.798058,385.880462 711.081186,384.543692 C707.364313,383.206923 704.071344,381.397419 701.202179,379.11513 L705.016845,373.735473 C707.755593,375.822138 710.608413,377.419717 713.57539,378.528258 C716.542367,379.636799 719.525602,380.191061 722.525183,380.191061 C725.589972,380.191061 728.100454,379.473781 730.056703,378.039198 C732.012951,376.604616 732.991061,374.648396 732.991061,372.170482 L732.991061,371.974858 C732.991061,370.7359 732.648722,369.659979 731.964036,368.747064 C731.279349,367.834148 730.350144,367.035358 729.176395,366.350671 C728.002646,365.665984 726.649595,365.062816 725.1172,364.54115 C723.584804,364.019483 722.003527,363.530428 720.37332,363.073971 C718.417071,362.487096 716.44455,361.851325 714.455698,361.166638 C712.466845,360.481951 710.673644,359.617954 709.076041,358.574621 C707.478437,357.531289 706.174291,356.227142 705.163563,354.662143 C704.152834,353.097145 703.647477,351.140925 703.647477,348.793427 L703.647477,348.597803 C703.647477,346.44593 704.071325,344.473408 704.919033,342.68018 C705.766741,340.886953 706.956774,339.354581 708.489169,338.083019 C710.021564,336.811457 711.847368,335.833348 713.966638,335.148661 C716.085907,334.463974 718.384465,334.121635 720.86238,334.121635 C723.992378,334.121635 727.154932,334.626992 730.350138,335.637721 C733.545344,336.648449 736.44707,338.0015 739.055401,339.696916 L735.631983,345.370009 C733.284485,343.870219 730.822909,342.680185 728.247182,341.799873 C725.671454,340.919561 723.144671,340.479412 720.666756,340.479412 C717.667175,340.479412 715.287108,341.18039 713.526484,342.582368 C711.765861,343.984347 710.885562,345.728642 710.885562,347.815307 L710.885562,348.010931 C710.885562,349.184681 711.244202,350.211696 711.961493,351.092007 C712.678784,351.97232 713.640592,352.738505 714.846946,353.390588 C716.053298,354.042671 717.438954,354.629537 719.003953,355.151203 C720.568952,355.67287 722.199135,356.194528 723.89455,356.716194 C725.850799,357.303069 727.790716,357.955142 729.714361,358.672433 C731.638005,359.389724 733.382301,360.302627 734.9473,361.411168 C736.512299,362.519709 737.767539,363.856459 738.71306,365.421458 C739.65858,366.986456 740.131333,368.910072 740.131333,371.192362 L740.131333,371.387986 C740.131333,373.800693 739.65858,375.936232 738.71306,377.794668 C737.767539,379.653105 736.495997,381.234382 734.898394,382.538548 C733.300791,383.842713 731.409779,384.837125 729.225301,385.521812 C727.040823,386.206499 724.677059,386.548837 722.133935,386.548837 Z M832.054326,386.744461 C827.098489,386.744461 822.533979,385.831558 818.360654,384.005727 C814.18732,382.179894 810.56831,379.685715 807.503528,376.523113 C804.438738,373.360511 802.042369,369.627393 800.31435,365.323646 C798.586324,361.019898 797.722334,356.422783 797.722334,351.532161 L797.722334,351.336537 C797.722334,346.511124 798.586324,341.946612 800.31435,337.642865 C802.042369,333.339118 804.438738,329.573396 807.503528,326.345586 C810.56831,323.117775 814.219924,320.57469 818.458466,318.716255 C822.696999,316.857818 827.326717,315.928614 832.347762,315.928614 C835.47776,315.928614 838.297972,316.189443 840.808495,316.71111 C843.319009,317.232776 845.65017,317.966358 847.802048,318.911878 C849.953919,319.857399 851.942738,320.998526 853.768577,322.335296 C855.594408,323.672066 857.355007,325.155533 859.050422,326.78574 L853.768577,332.458832 C850.834203,329.720085 847.68795,327.470432 844.329724,325.709808 C840.971491,323.949185 836.944947,323.068886 832.24995,323.068886 C828.467864,323.068886 824.962976,323.786166 821.735166,325.220749 C818.507356,326.655331 815.703437,328.644154 813.323339,331.187277 C810.943232,333.7304 809.084821,336.713635 807.748058,340.13707 C806.411287,343.560505 805.742913,347.228417 805.742913,351.140913 L805.742913,351.336537 C805.742913,355.314243 806.411287,359.014758 807.748058,362.438194 C809.084821,365.861628 810.943232,368.844863 813.323339,371.387986 C815.703437,373.931109 818.507356,375.936234 821.735166,377.403421 C824.962976,378.870607 828.467864,379.604189 832.24995,379.604189 C836.944947,379.604189 840.987793,378.740193 844.37863,377.012173 C847.76946,375.284153 851.095035,372.85518 854.355449,369.725183 L859.44167,374.713592 C857.681047,376.539424 855.838938,378.185909 853.915295,379.653095 C851.991644,381.120282 849.921315,382.375522 847.704236,383.418855 C845.48715,384.462188 843.107083,385.277279 840.563965,385.864154 C838.020838,386.451029 835.184324,386.744461 832.054326,386.744461 Z M902.957861,379.995437 C905.696611,379.995437 908.207094,379.473778 910.48938,378.430446 C912.771675,377.387113 914.72789,375.985156 916.358097,374.224533 C917.988304,372.463909 919.259851,370.409878 920.172763,368.06238 C921.085682,365.714882 921.54213,363.2044 921.54213,360.530861 L921.54213,360.335237 C921.54213,357.596488 921.06938,355.037101 920.123857,352.656998 C919.178341,350.276896 917.857888,348.190263 916.162473,346.397034 C914.467058,344.603806 912.478239,343.185548 910.195944,342.142215 C907.913658,341.098883 905.435779,340.577224 902.762237,340.577224 C900.023494,340.577224 897.513012,341.098883 895.230717,342.142215 C892.948431,343.185548 891.00851,344.587505 889.410907,346.348128 C887.813304,348.108752 886.558066,350.179084 885.645147,352.559187 C884.732235,354.939289 884.27578,357.466073 884.27578,360.139613 L884.27578,360.335237 C884.27578,363.073985 884.748537,365.633372 885.694053,368.013474 C886.639576,370.393577 887.94372,372.463909 889.606531,374.224533 C891.269342,375.985156 893.241866,377.387113 895.524153,378.430446 C897.806448,379.473778 900.284326,379.995437 902.957861,379.995437 Z M902.762237,386.744461 C898.980159,386.744461 895.491565,386.043483 892.296359,384.641504 C889.101153,383.239526 886.329846,381.348514 883.982344,378.968412 C881.634849,376.588309 879.809042,373.816999 878.504875,370.654397 C877.200708,367.491795 876.548636,364.117316 876.548636,360.530861 L876.548636,360.335237 C876.548636,356.748781 877.200708,353.358 878.504875,350.162794 C879.809042,346.967588 881.634849,344.163673 883.982344,341.750967 C886.329846,339.33826 889.117455,337.430947 892.345265,336.028968 C895.573075,334.62699 899.110575,333.926012 902.957861,333.926012 C906.739946,333.926012 910.244835,334.62699 913.472645,336.028968 C916.700455,337.430947 919.488071,339.321958 921.835566,341.702061 C924.183068,344.082163 926.008867,346.853474 927.313034,350.016076 C928.617202,353.178678 929.269273,356.553157 929.269273,360.139613 L929.269273,360.335237 C929.269273,363.921692 928.6009,367.312473 927.264128,370.507679 C925.927357,373.702885 924.085256,376.506799 921.737754,378.919506 C919.390259,381.332212 916.586341,383.239526 913.325927,384.641504 C910.065513,386.043483 906.544322,386.744461 902.762237,386.744461 Z M951.560281,335.001943 L959.0918,335.001943 L959.0918,385.570718 L951.560281,385.570718 L951.560281,335.001943 Z M951.071221,315.635178 L959.678672,315.635178 L959.678672,323.949193 L951.071221,323.949193 L951.071221,315.635178 Z M984.610594,335.001943 L992.142122,335.001943 L992.142122,343.805018 C993.837537,341.06627 996.054584,338.735108 998.793334,336.811464 C1001.53208,334.887819 1005.08588,333.926012 1009.45484,333.926012 C1012.51962,333.926012 1015.24203,334.415066 1017.62213,335.393191 C1020.00223,336.371315 1022.02366,337.756971 1023.68647,339.550198 C1025.34928,341.343426 1026.62082,343.478966 1027.50114,345.95688 C1028.38145,348.434796 1028.8216,351.173502 1028.8216,354.173084 L1028.8216,385.570718 L1021.29008,385.570718 L1021.29008,356.031511 C1021.29008,351.336514 1020.08374,347.619697 1017.67104,344.880949 C1015.25833,342.142201 1011.80234,340.772848 1007.30297,340.772848 C1005.15109,340.772848 1003.14597,341.147789 1001.28754,341.897685 C999.429096,342.64758 997.815214,343.723501 996.445847,345.125479 C995.076472,346.527457 994.016851,348.206546 993.266959,350.162794 C992.51706,352.119043 992.142122,354.270884 992.142122,356.618382 L992.142122,385.570718 L984.610594,385.570718 L984.610594,335.001943 Z" id="The-People’s-Coin" fill-rule="nonzero"></path>
            <path d="M333.368058,193.085481 C332.33063,185.527077 329.662998,179.413753 325.365082,174.745327 C321.067165,170.076901 315.361397,167.742722 308.247604,167.742722 C301.133812,167.742722 295.390993,170.03985 291.018975,174.634174 C286.646956,179.228499 283.794072,185.378873 282.460236,193.085481 L333.368058,193.085481 Z M311.582178,264.667659 C302.689937,264.667659 294.427688,263.185641 286.795181,260.221561 C279.162675,257.257481 272.567696,253.03373 267.010045,247.550182 C261.452395,242.066633 257.117493,235.582805 254.005209,228.098503 C250.892925,220.6142 249.336806,212.27785 249.336806,203.089202 L249.336806,202.644592 C249.336806,194.196963 250.781773,186.194067 253.671751,178.635662 C256.561729,171.077258 260.600228,164.482279 265.787368,158.850526 C270.974509,153.218774 277.161933,148.772721 284.349828,145.512232 C291.537722,142.251744 299.503568,140.621525 308.247604,140.621525 C318.177273,140.621525 326.772976,142.399946 334.034973,145.956842 C341.296969,149.513738 347.336192,154.293246 352.152822,160.295508 C356.969452,166.297771 360.526295,173.189154 362.823457,180.969864 C365.120619,188.750574 366.269183,196.864622 366.269183,205.312251 C366.269183,206.646087 366.232133,208.054004 366.158031,209.536044 C366.083929,211.018084 365.972777,212.574202 365.824573,214.204447 L282.904846,214.204447 C284.53509,221.911055 287.90668,227.727975 293.019719,231.655381 C298.132757,235.582787 304.468383,237.546461 312.026788,237.546461 C317.65854,237.546461 322.697401,236.583149 327.143521,234.656497 C331.589641,232.729845 336.183896,229.617608 340.926425,225.319692 L360.266951,242.437169 C354.635199,249.402757 347.817917,254.849173 339.8149,258.776579 C331.811884,262.703985 322.40107,264.667659 311.582178,264.667659 Z M391.389637,142.844574 L425.179982,142.844574 L425.179982,166.853503 C428.588674,158.702282 433.25703,152.181404 439.18519,147.290672 C445.113351,142.399939 453.116247,140.176913 463.19412,140.621525 L463.19412,175.968004 L461.41568,175.968004 C450.152176,175.968004 441.297119,179.376645 434.850245,186.194029 C428.403371,193.011413 425.179982,203.607841 425.179982,217.98363 L425.179982,262 L391.389637,262 L391.389637,142.844574 Z M524.550272,264.000744 C519.363132,264.000744 514.657725,263.444987 510.433911,262.333457 C506.210097,261.221927 502.579153,259.258254 499.540971,256.442378 C496.502789,253.626501 494.13156,249.958507 492.427214,245.438285 C490.722868,240.918063 489.870708,235.175244 489.870708,228.209655 L489.870708,171.744211 L475.643194,171.744211 L475.643194,142.844574 L489.870708,142.844574 L489.870708,112.388802 L523.661052,112.388802 L523.661052,142.844574 L551.67147,142.844574 L551.67147,171.744211 L523.661052,171.744211 L523.661052,222.652033 C523.661052,230.358641 527.291996,234.211888 534.553992,234.211888 C540.482153,234.211888 546.03972,232.803971 551.22686,229.988094 L551.22686,257.109292 C547.669964,259.184148 543.742617,260.851418 539.4447,262.111152 C535.146784,263.370887 530.182024,264.000744 524.550272,264.000744 Z M632.812758,264.667659 C623.920518,264.667659 615.658268,263.037439 608.025762,259.776951 C600.393256,256.516463 593.835327,252.10746 588.351778,246.549809 C582.86823,240.992159 578.570378,234.471281 575.458094,226.986978 C572.34581,219.502676 570.789691,211.53683 570.789691,203.089202 L570.789691,202.644592 C570.789691,194.196963 572.34581,186.194067 575.458094,178.635662 C578.570378,171.077258 582.86823,164.482279 588.351778,158.850526 C593.835327,153.218774 600.393256,148.772721 608.025762,145.512232 C615.658268,142.251744 624.06872,140.621525 633.257368,140.621525 C644.520873,140.621525 653.857585,142.399946 661.267785,145.956842 C668.677986,149.513738 675.198864,154.404397 680.830617,160.628966 L660.156261,182.859456 C656.302957,178.857947 652.338559,175.671609 648.262949,173.300345 C644.187339,170.929081 639.111428,169.743467 633.035063,169.743467 C628.737147,169.743467 624.84685,170.595627 621.364056,172.299973 C617.881262,174.004319 614.843125,176.338497 612.249555,179.302577 C609.655985,182.266657 607.655261,185.712349 606.247323,189.639755 C604.839385,193.567161 604.135426,197.753862 604.135426,202.199982 L604.135426,202.644592 C604.135426,207.238916 604.839385,211.536768 606.247323,215.538276 C607.655261,219.539784 609.693035,223.022526 612.360707,225.986606 C615.02838,228.950686 618.214718,231.284864 621.919818,232.989211 C625.624918,234.693557 629.774568,235.545717 634.368893,235.545717 C640.000645,235.545717 644.928354,234.397153 649.152168,232.099991 C653.375983,229.802829 657.562683,226.727642 661.712395,222.874338 L681.497531,242.881779 C675.717575,249.254551 669.122596,254.478664 661.712395,258.554274 C654.302195,262.629884 644.669079,264.667659 632.812758,264.667659 Z M762.416515,235.545717 C767.307247,235.545717 771.642149,234.693557 775.421352,232.989211 C779.200554,231.284864 782.423943,228.950686 785.091615,225.986606 C787.759287,223.022526 789.797061,219.576835 791.205,215.649428 C792.612938,211.722022 793.316896,207.535322 793.316896,203.089202 L793.316896,202.644592 C793.316896,198.198471 792.575887,194.011771 791.093847,190.084365 C789.611807,186.156959 787.462881,182.674217 784.647005,179.636035 C781.831129,176.597852 778.496589,174.189573 774.643284,172.411125 C770.78998,170.632677 766.566229,169.743467 761.971905,169.743467 C757.081173,169.743467 752.746271,170.595627 748.967069,172.299973 C745.187866,174.004319 741.964478,176.338497 739.296805,179.302577 C736.629133,182.266657 734.591359,185.712349 733.183421,189.639755 C731.775483,193.567161 731.071524,197.753862 731.071524,202.199982 L731.071524,202.644592 C731.071524,207.090712 731.812533,211.277412 733.294573,215.204819 C734.776613,219.132225 736.925539,222.614967 739.741415,225.653149 C742.557291,228.691331 745.854781,231.09961 749.633983,232.878058 C753.413185,234.656506 757.673987,235.545717 762.416515,235.545717 Z M761.971905,264.667659 C752.783257,264.667659 744.261654,263.07449 736.406842,259.888103 C728.552029,256.701717 721.771798,252.329765 716.065943,246.772114 C710.360089,241.214464 705.876985,234.693586 702.616497,227.209283 C699.356009,219.724981 697.725789,211.685034 697.725789,203.089202 L697.725789,202.644592 C697.725789,194.048759 699.356009,186.008812 702.616497,178.52451 C705.876985,171.040208 710.39714,164.482279 716.177096,158.850526 C721.957052,153.218774 728.774334,148.772721 736.629147,145.512232 C744.483959,142.251744 753.079663,140.621525 762.416515,140.621525 C771.605163,140.621525 780.126766,142.214694 787.981578,145.40108 C795.836391,148.587466 802.616623,152.959419 808.322477,158.517069 C814.028331,164.074719 818.511435,170.595598 821.771923,178.0799 C825.032411,185.564203 826.662631,193.604149 826.662631,202.199982 L826.662631,202.644592 C826.662631,211.240424 825.032411,219.280371 821.771923,226.764673 C818.511435,234.248976 813.991281,240.806905 808.211324,246.438657 C802.431368,252.070409 795.614086,256.516463 787.759274,259.776951 C779.904461,263.037439 771.308758,264.667659 761.971905,264.667659 Z M852.672304,142.844574 L886.462649,142.844574 L886.462649,262 L852.672304,262 L852.672304,142.844574 Z M851.783085,99.717423 L887.351869,99.717423 L887.351869,129.728585 L851.783085,129.728585 L851.783085,99.717423 Z M918.25225,142.844574 L952.042595,142.844574 L952.042595,159.739746 C953.969247,157.220278 956.081122,154.811999 958.378284,152.514837 C960.675446,150.217675 963.231927,148.1799 966.047803,146.401452 C968.86368,144.623004 971.975917,143.215087 975.384609,142.177659 C978.793301,141.140231 982.646548,140.621525 986.944464,140.621525 C999.838213,140.621525 1009.80478,144.548872 1016.84447,152.403684 C1023.88416,160.258497 1027.40396,171.077227 1027.40396,184.8602 L1027.40396,262 L993.613611,262 L993.613611,195.530835 C993.613611,187.527818 991.83519,181.488596 988.278293,177.412986 C984.721397,173.337375 979.682537,171.299601 973.16156,171.299601 C966.640584,171.299601 961.490572,173.337375 957.71137,177.412986 C953.932167,181.488596 952.042595,187.527818 952.042595,195.530835 L952.042595,262 L918.25225,262 L918.25225,142.844574 Z" id="ertcoin"></path>
            <path d="M0,135 L21.5,110.5 L98.001634,110.5 L145,170.5 L268,0 C275.324893,6.5732596 282.158226,14.0732596 288.5,22.5 C294.841774,30.9267404 300.341774,39.9267404 305,49.5 L154,258.5 C151.146538,261.5 148.146538,263 145,263 C141.853462,263 138.686795,261.5 135.5,258.5 L40,135 L0,135 Z" id="Path-2-Copy"></path>
        </g>
    </g>
</svg>