<?xml version="1.0" encoding="UTF-8"?>
<svg width="1008px" height="359px" viewBox="0 0 1008 359" version="1.1" xmlns="http://www.w3.org/2000/svg" xmlns:xlink="http://www.w3.org/1999/xlink">
    <!-- Generator: Sketch 48.2 (47327) - http://www.bohemiancoding.com/sketch -->
    <title>Group 10</title>
    <desc>Created with Sketch.</desc>
    <defs></defs>
    <g id="Page-1" stroke="none" stroke-width="1" fill="none" fill-rule="evenodd">
        <g id="Group-10" fill="#2E9E71">
            <path d="M313.368058,160.085481 C312.33063,152.527077 309.662998,146.413753 305.365082,141.745327 C301.067165,137.076901 295.361397,134.742722 288.247604,134.742722 C281.133812,134.742722 275.390993,137.03985 271.018975,141.634174 C266.646956,146.228499 263.794072,152.378873 262.460236,160.085481 L313.368058,160.085481 Z M291.582178,231.667659 C282.689937,231.667659 274.427688,230.185641 266.795181,227.221561 C259.162675,224.257481 252.567696,220.03373 247.010045,214.550182 C241.452395,209.066633 237.117493,202.582805 234.005209,195.098503 C230.892925,187.6142 229.336806,179.27785 229.336806,170.089202 L229.336806,169.644592 C229.336806,161.196963 230.781773,153.194067 233.671751,145.635663 C236.561729,138.077258 240.600228,131.482279 245.787368,125.850526 C250.974509,120.218774 257.161933,115.772721 264.349828,112.512232 C271.537722,109.251744 279.503568,107.621525 288.247604,107.621525 C298.177273,107.621525 306.772976,109.399946 314.034973,112.956842 C321.296969,116.513738 327.336192,121.293246 332.152822,127.295508 C336.969452,133.297771 340.526295,140.189154 342.823457,147.969864 C345.120619,155.750574 346.269183,163.864622 346.269183,172.312251 C346.269183,173.646087 346.232133,175.054004 346.158031,176.536044 C346.083929,178.018084 345.972777,179.574202 345.824573,181.204447 L262.904846,181.204447 C264.53509,188.911055 267.90668,194.727975 273.019719,198.655381 C278.132757,202.582787 284.468383,204.546461 292.026788,204.546461 C297.65854,204.546461 302.697401,203.583149 307.143521,201.656497 C311.589641,199.729845 316.183896,196.617608 320.926425,192.319692 L340.266951,209.437169 C334.635199,216.402757 327.817917,221.849173 319.8149,225.776579 C311.811884,229.703985 302.40107,231.667659 291.582178,231.667659 Z M371.389637,109.844574 L405.179982,109.844574 L405.179982,133.853503 C408.588674,125.702282 413.25703,119.181404 419.18519,114.290672 C425.113351,109.399939 433.116247,107.176913 443.19412,107.621525 L443.19412,142.968004 L441.41568,142.968004 C430.152176,142.968004 421.297119,146.376645 414.850245,153.194029 C408.403371,160.011413 405.179982,170.607841 405.179982,184.98363 L405.179982,229 L371.389637,229 L371.389637,109.844574 Z M504.550272,231.000744 C499.363132,231.000744 494.657725,230.444987 490.433911,229.333457 C486.210097,228.221927 482.579153,226.258254 479.540971,223.442378 C476.502789,220.626501 474.13156,216.958507 472.427214,212.438285 C470.722868,207.918063 469.870708,202.175244 469.870708,195.209655 L469.870708,138.744211 L455.643194,138.744211 L455.643194,109.844574 L469.870708,109.844574 L469.870708,79.3888023 L503.661052,79.3888023 L503.661052,109.844574 L531.67147,109.844574 L531.67147,138.744211 L503.661052,138.744211 L503.661052,189.652033 C503.661052,197.358641 507.291996,201.211888 514.553992,201.211888 C520.482153,201.211888 526.03972,199.803971 531.22686,196.988094 L531.22686,224.109292 C527.669964,226.184148 523.742617,227.851418 519.4447,229.111152 C515.146784,230.370887 510.182024,231.000744 504.550272,231.000744 Z M612.812758,231.667659 C603.920518,231.667659 595.658268,230.037439 588.025762,226.776951 C580.393256,223.516463 573.835327,219.10746 568.351778,213.549809 C562.86823,207.992159 558.570378,201.471281 555.458094,193.986978 C552.34581,186.502676 550.789691,178.53683 550.789691,170.089202 L550.789691,169.644592 C550.789691,161.196963 552.34581,153.194067 555.458094,145.635663 C558.570378,138.077258 562.86823,131.482279 568.351778,125.850526 C573.835327,120.218774 580.393256,115.772721 588.025762,112.512232 C595.658268,109.251744 604.06872,107.621525 613.257368,107.621525 C624.520873,107.621525 633.857585,109.399946 641.267785,112.956842 C648.677986,116.513738 655.198864,121.404397 660.830617,127.628966 L640.156261,149.859456 C636.302957,145.857947 632.338559,142.671609 628.262949,140.300345 C624.187339,137.929081 619.111428,136.743467 613.035063,136.743467 C608.737147,136.743467 604.84685,137.595627 601.364056,139.299973 C597.881262,141.004319 594.843125,143.338497 592.249555,146.302577 C589.655985,149.266657 587.655261,152.712349 586.247323,156.639755 C584.839385,160.567161 584.135426,164.753862 584.135426,169.199982 L584.135426,169.644592 C584.135426,174.238916 584.839385,178.536768 586.247323,182.538276 C587.655261,186.539784 589.693035,190.022526 592.360707,192.986606 C595.02838,195.950686 598.214718,198.284864 601.919818,199.989211 C605.624918,201.693557 609.774568,202.545717 614.368893,202.545717 C620.000645,202.545717 624.928354,201.397153 629.152168,199.099991 C633.375983,196.802829 637.562683,193.727642 641.712395,189.874338 L661.497531,209.881779 C655.717575,216.254551 649.122596,221.478664 641.712395,225.554274 C634.302195,229.629884 624.669079,231.667659 612.812758,231.667659 Z M742.416515,202.545717 C747.307247,202.545717 751.642149,201.693557 755.421352,199.989211 C759.200554,198.284864 762.423943,195.950686 765.091615,192.986606 C767.759287,190.022526 769.797061,186.576835 771.205,182.649428 C772.612938,178.722022 773.316896,174.535322 773.316896,170.089202 L773.316896,169.644592 C773.316896,165.198471 772.575887,161.011771 771.093847,157.084365 C769.611807,153.156959 767.462881,149.674217 764.647005,146.636035 C761.831129,143.597852 758.496589,141.189573 754.643284,139.411125 C750.78998,137.632677 746.566229,136.743467 741.971905,136.743467 C737.081173,136.743467 732.746271,137.595627 728.967069,139.299973 C725.187866,141.004319 721.964478,143.338497 719.296805,146.302577 C716.629133,149.266657 714.591359,152.712349 713.183421,156.639755 C711.775483,160.567161 711.071524,164.753862 711.071524,169.199982 L711.071524,169.644592 C711.071524,174.090712 711.812533,178.277412 713.294573,182.204819 C714.776613,186.132225 716.925539,189.614967 719.741415,192.653149 C722.557291,195.691331 725.854781,198.09961 729.633983,199.878058 C733.413185,201.656506 737.673987,202.545717 742.416515,202.545717 Z M741.971905,231.667659 C732.783257,231.667659 724.261654,230.07449 716.406842,226.888103 C708.552029,223.701717 701.771798,219.329765 696.065943,213.772114 C690.360089,208.214464 685.876985,201.693586 682.616497,194.209283 C679.356009,186.724981 677.725789,178.685034 677.725789,170.089202 L677.725789,169.644592 C677.725789,161.048759 679.356009,153.008812 682.616497,145.52451 C685.876985,138.040208 690.39714,131.482279 696.177096,125.850526 C701.957052,120.218774 708.774334,115.772721 716.629147,112.512232 C724.483959,109.251744 733.079663,107.621525 742.416515,107.621525 C751.605163,107.621525 760.126766,109.214694 767.981578,112.40108 C775.836391,115.587466 782.616623,119.959419 788.322477,125.517069 C794.028331,131.074719 798.511435,137.595598 801.771923,145.0799 C805.032411,152.564203 806.662631,160.604149 806.662631,169.199982 L806.662631,169.644592 C806.662631,178.240424 805.032411,186.280371 801.771923,193.764673 C798.511435,201.248976 793.991281,207.806905 788.211324,213.438657 C782.431368,219.070409 775.614086,223.516463 767.759274,226.776951 C759.904461,230.037439 751.308758,231.667659 741.971905,231.667659 Z M832.672304,109.844574 L866.462649,109.844574 L866.462649,229 L832.672304,229 L832.672304,109.844574 Z M831.783085,66.717423 L867.351869,66.717423 L867.351869,96.7285845 L831.783085,96.7285845 L831.783085,66.717423 Z M898.25225,109.844574 L932.042595,109.844574 L932.042595,126.739746 C933.969247,124.220278 936.081122,121.811999 938.378284,119.514837 C940.675446,117.217675 943.231927,115.1799 946.047803,113.401452 C948.86368,111.623004 951.975917,110.215087 955.384609,109.177659 C958.793301,108.140231 962.646548,107.621525 966.944464,107.621525 C979.838213,107.621525 989.804783,111.548872 996.844473,119.403684 C1003.88416,127.258497 1007.40396,138.077227 1007.40396,151.8602 L1007.40396,229 L973.613611,229 L973.613611,162.530835 C973.613611,154.527818 971.83519,148.488596 968.278293,144.412986 C964.721397,140.337375 959.682537,138.299601 953.16156,138.299601 C946.640584,138.299601 941.490572,140.337375 937.71137,144.412986 C933.932167,148.488596 932.042595,154.527818 932.042595,162.530835 L932.042595,229 L898.25225,229 L898.25225,109.844574 Z" id="ertcoin"></path>
            <path d="M0,118.574144 L18.8918033,97.0551331 L86.1129112,97.0551331 L127.409836,149.754753 L235.488525,0 C241.924824,5.77347136 247.929196,12.3609238 253.501639,19.7623574 C259.074083,27.163791 263.90687,35.068734 268,43.4771863 L135.318033,227.047529 C132.810728,229.68251 130.174663,231 127.409836,231 C124.645009,231 121.862496,229.68251 119.062295,227.047529 L35.147541,118.574144 L0,118.574144 Z" id="Path-2"></path>
            <path d="M58.6591053,282.952809 L36,282.952809 L36,275.898876 L89.0319477,275.898876 L89.0319477,282.952809 L66.3728431,282.952809 L66.3728431,343.539326 L58.6591053,343.539326 L58.6591053,282.952809 Z M109.945487,273 L117.369959,273 L117.369959,302.278651 C119.041278,299.57302 121.226815,297.270047 123.926636,295.369663 C126.626459,293.469279 130.129746,292.519101 134.436604,292.519101 C137.457834,292.519101 140.141545,293.002242 142.487819,293.968539 C144.834092,294.934836 146.826788,296.303736 148.465965,298.075281 C150.105143,299.846825 151.358612,301.956542 152.226413,304.404494 C153.094212,306.852447 153.528106,309.558037 153.528106,312.521348 L153.528106,343.539326 L146.103633,343.539326 L146.103633,314.357303 C146.103633,309.719078 144.914444,306.047204 142.53603,303.341573 C140.157615,300.635941 136.750748,299.283146 132.315326,299.283146 C130.194038,299.283146 128.217412,299.653554 126.38539,300.394382 C124.553369,301.13521 122.962426,302.19812 121.612515,303.583146 C120.262605,304.968172 119.218046,306.626957 118.478809,308.55955 C117.739572,310.492145 117.369959,312.617966 117.369959,314.937078 L117.369959,343.539326 L109.945487,343.539326 L109.945487,273 Z M213.781707,315.613483 C213.588863,313.35879 213.106759,311.216864 212.335382,309.18764 C211.564004,307.158416 210.519446,305.370794 209.201676,303.824719 C207.883906,302.278644 206.276893,301.054686 204.38059,300.152809 C202.484286,299.250931 200.314819,298.8 197.872123,298.8 C195.750835,298.8 193.758139,299.218722 191.893977,300.05618 C190.029814,300.893637 188.390661,302.069281 186.976469,303.583146 C185.562276,305.097011 184.389157,306.884634 183.457076,308.946067 C182.524995,311.007501 181.930399,313.22995 181.673274,315.613483 L213.781707,315.613483 Z M181.673274,321.604495 C181.930399,324.245706 182.573205,326.596994 183.601708,328.658427 C184.630212,330.719861 185.947963,332.459169 187.554999,333.876405 C189.162036,335.29364 190.96189,336.372655 192.954615,337.113483 C194.947341,337.854311 197.036457,338.224719 199.222027,338.224719 C202.693227,338.224719 205.6662,337.580531 208.141037,336.292135 C210.615873,335.003739 212.881761,333.29664 214.938768,331.170787 L219.567011,335.325843 C217.060034,338.160314 214.199551,340.431078 210.985477,342.138202 C207.771404,343.845327 203.786013,344.698877 199.029184,344.698877 C195.622266,344.698877 192.408241,344.070793 189.387012,342.814607 C186.365783,341.558421 183.730282,339.786903 181.480431,337.5 C179.230579,335.213097 177.446795,332.459192 176.129025,329.238203 C174.811254,326.017212 174.15238,322.474176 174.15238,318.608989 C174.15238,315.00148 174.746974,311.603387 175.936182,308.414606 C177.125388,305.225827 178.780611,302.455817 180.9019,300.104494 C183.023188,297.753172 185.546198,295.90113 188.471005,294.548314 C191.395813,293.195498 194.593767,292.519101 198.064967,292.519101 C201.729011,292.519101 205.007317,293.211603 207.899982,294.596629 C210.792649,295.981655 213.235308,297.865906 215.228033,300.249438 C217.220759,302.63297 218.731351,305.43519 219.759855,308.656179 C220.788358,311.87717 221.302602,315.323577 221.302602,318.995506 L221.302602,320.106742 C221.302602,320.52547 221.270462,321.024716 221.206181,321.604495 L181.673274,321.604495 Z M304.591021,312.714606 C307.355124,312.714606 309.878134,312.360303 312.160126,311.651685 C314.442119,310.943068 316.402674,309.928471 318.041851,308.607865 C319.681029,307.287259 320.934499,305.725103 321.802298,303.921348 C322.670099,302.117594 323.103992,300.0884 323.103992,297.833708 L323.103992,297.640449 C323.103992,292.808964 321.448768,289.153196 318.138273,286.673034 C314.827777,284.192871 310.440633,282.952809 304.976708,282.952809 L287.910063,282.952809 L287.910063,312.714606 L304.591021,312.714606 Z M280.292747,275.898876 L305.555238,275.898876 C309.347845,275.898876 312.802922,276.398122 315.920573,277.396629 C319.038225,278.395136 321.705866,279.81235 323.923576,281.648315 C326.141288,283.484278 327.844721,285.722833 329.033928,288.364045 C330.223135,291.005257 330.81773,294.000732 330.81773,297.350562 L330.81773,297.54382 C330.81773,301.215749 330.110645,304.420586 328.696452,307.158427 C327.282259,309.896268 325.369915,312.199241 322.959359,314.067415 C320.548804,315.93559 317.736532,317.3367 314.522458,318.270787 C311.308385,319.204873 307.901518,319.67191 304.301756,319.67191 L287.910063,319.67191 L287.910063,343.539326 L280.292747,343.539326 L280.292747,275.898876 Z M387.889415,315.613483 C387.696571,313.35879 387.214467,311.216864 386.443089,309.18764 C385.671711,307.158416 384.627153,305.370794 383.309383,303.824719 C381.991613,302.278644 380.3846,301.054686 378.488297,300.152809 C376.591994,299.250931 374.422526,298.8 371.979831,298.8 C369.858542,298.8 367.865847,299.218722 366.001684,300.05618 C364.137521,300.893637 362.498369,302.069281 361.084176,303.583146 C359.669984,305.097011 358.496864,306.884634 357.564783,308.946067 C356.632702,311.007501 356.038107,313.22995 355.780981,315.613483 L387.889415,315.613483 Z M355.780981,321.604495 C356.038107,324.245706 356.680912,326.596994 357.709416,328.658427 C358.737919,330.719861 360.055669,332.459169 361.662707,333.876405 C363.269743,335.29364 365.069597,336.372655 367.062323,337.113483 C369.055048,337.854311 371.144165,338.224719 373.329735,338.224719 C376.800934,338.224719 379.773907,337.580531 382.248744,336.292135 C384.723581,335.003739 386.989469,333.29664 389.046476,331.170787 L393.674718,335.325843 C391.167741,338.160314 388.307259,340.431078 385.093185,342.138202 C381.879111,343.845327 377.89372,344.698877 373.136891,344.698877 C369.729973,344.698877 366.515948,344.070793 363.494719,342.814607 C360.47349,341.558421 357.837989,339.786903 355.588137,337.5 C353.338286,335.213097 351.554502,332.459192 350.236732,329.238203 C348.918962,326.017212 348.260086,322.474176 348.260086,318.608989 C348.260086,315.00148 348.854682,311.603387 350.043888,308.414606 C351.233096,305.225827 352.888319,302.455817 355.009607,300.104494 C357.130896,297.753172 359.653906,295.90113 362.578713,294.548314 C365.503519,293.195498 368.701475,292.519101 372.172674,292.519101 C375.836718,292.519101 379.115023,293.211603 382.00769,294.596629 C384.900356,295.981655 387.343015,297.865906 389.335741,300.249438 C391.328466,302.63297 392.839059,305.43519 393.867562,308.656179 C394.896065,311.87717 395.410309,315.323577 395.410309,318.995506 L395.410309,320.106742 C395.410309,320.52547 395.378169,321.024716 395.313887,321.604495 L355.780981,321.604495 Z M439.272219,338.031461 C441.97204,338.031461 444.446839,337.51611 446.696691,336.485393 C448.946543,335.454676 450.874958,334.069672 452.481995,332.330337 C454.089031,330.591003 455.342501,328.561809 456.242442,326.242697 C457.142383,323.923584 457.592346,321.443459 457.592346,318.802248 L457.592346,318.608989 C457.592346,315.903357 457.126312,313.374918 456.194231,311.023595 C455.26215,308.672273 453.960469,306.610871 452.289151,304.839326 C450.617833,303.067781 448.657277,301.666672 446.407426,300.635955 C444.157574,299.605238 441.714915,299.089887 439.079375,299.089887 C436.379553,299.089887 433.904754,299.605238 431.654902,300.635955 C429.405051,301.666672 427.492706,303.051676 425.91781,304.791011 C424.342914,306.530345 423.105514,308.575643 422.205573,310.926966 C421.305632,313.278289 420.855669,315.774519 420.855669,318.415731 L420.855669,318.608989 C420.855669,321.31462 421.321703,323.84306 422.253784,326.194382 C423.185865,328.545705 424.471476,330.591003 426.110653,332.330337 C427.749831,334.069672 429.694316,335.454676 431.944167,336.485393 C434.194019,337.51611 436.636678,338.031461 439.272219,338.031461 Z M439.079375,344.698877 C435.35105,344.698877 431.912042,344.006374 428.76225,342.621348 C425.612458,341.236323 422.880537,339.368177 420.566404,337.016854 C418.252271,334.665532 416.452417,331.927731 415.166788,328.803371 C413.881158,325.679011 413.238353,322.345336 413.238353,318.802248 L413.238353,318.608989 C413.238353,315.0659 413.881158,311.71612 415.166788,308.55955 C416.452417,305.40298 418.252271,302.63297 420.566404,300.249438 C422.880537,297.865906 425.628529,295.981655 428.810461,294.596629 C431.992394,293.211603 435.479611,292.519101 439.272219,292.519101 C443.000543,292.519101 446.455621,293.211603 449.637554,294.596629 C452.819486,295.981655 455.567478,297.849801 457.881611,300.201123 C460.195744,302.552446 461.995598,305.290246 463.281228,308.414606 C464.566857,311.538967 465.209662,314.872642 465.209662,318.415731 L465.209662,318.608989 C465.209662,322.152078 464.550786,325.501857 463.233017,328.658427 C461.915247,331.814997 460.099322,334.585007 457.785189,336.96854 C455.471056,339.352072 452.706994,341.236323 449.492921,342.621348 C446.278847,344.006374 442.8077,344.698877 439.079375,344.698877 Z M511.674957,337.934832 C514.053372,337.934832 516.31926,337.500004 518.472689,336.630337 C520.626118,335.76067 522.490253,334.504502 524.065149,332.861798 C525.640045,331.219093 526.893515,329.206005 527.825597,326.822472 C528.757678,324.438939 529.223711,321.733349 529.223711,318.705618 L529.223711,318.51236 C529.223711,315.549049 528.757678,312.875668 527.825597,310.492134 C526.893515,308.108602 525.623975,306.079409 524.016938,304.404494 C522.409901,302.72958 520.545767,301.441203 518.424479,300.539326 C516.30319,299.637448 514.053372,299.186517 511.674957,299.186517 C509.360825,299.186517 507.127077,299.653553 504.973648,300.58764 C502.820218,301.521727 500.891803,302.842313 499.188344,304.549438 C497.484885,306.256563 496.134995,308.285756 495.138632,310.637078 C494.14227,312.988401 493.644095,315.581259 493.644095,318.415731 L493.644095,318.608989 C493.644095,321.50788 494.14227,324.149051 495.138632,326.532585 C496.134995,328.916117 497.484885,330.94531 499.188344,332.620225 C500.891803,334.295139 502.820218,335.599621 504.973648,336.533708 C507.127077,337.467795 509.360825,337.934832 511.674957,337.934832 Z M486.508888,293.582022 L493.933361,293.582022 L493.933361,303.63146 C494.961864,302.149805 496.102843,300.732591 497.356332,299.379775 C498.60982,298.026959 500.007921,296.851315 501.550677,295.852809 C503.093432,294.854302 504.812935,294.049067 506.709239,293.437078 C508.605542,292.82509 510.710729,292.519101 513.024861,292.519101 C515.981809,292.519101 518.890502,293.098871 521.751028,294.258427 C524.611553,295.417983 527.166703,297.108978 529.416555,299.33146 C531.666406,301.553943 533.46626,304.259535 534.816171,307.448314 C536.166082,310.637095 536.841027,314.292863 536.841027,318.415731 L536.841027,318.608989 C536.841027,322.667436 536.166082,326.3071 534.816171,329.52809 C533.46626,332.74908 531.682476,335.470776 529.464766,337.693259 C527.247055,339.915742 524.707975,341.62284 521.84745,342.814607 C518.986924,344.006373 516.046091,344.602247 513.024861,344.602247 C510.710729,344.602247 508.589472,344.312363 506.661028,343.732584 C504.732584,343.152806 502.99701,342.37978 501.454255,341.413483 C499.911499,340.447186 498.513399,339.319857 497.25991,338.031461 C496.006421,336.743065 494.897582,335.390269 493.933361,333.973034 L493.933361,359 L486.508888,359 L486.508888,293.582022 Z M559.104471,273 L566.528943,273 L566.528943,343.539326 L559.104471,343.539326 L559.104471,273 Z M628.228871,315.613483 C628.036026,313.35879 627.553923,311.216864 626.782545,309.18764 C626.011168,307.158416 624.966609,305.370794 623.648839,303.824719 C622.331069,302.278644 620.724056,301.054686 618.827753,300.152809 C616.93145,299.250931 614.761983,298.8 612.319287,298.8 C610.197998,298.8 608.205303,299.218722 606.34114,300.05618 C604.476977,300.893637 602.837824,302.069281 601.423632,303.583146 C600.00944,305.097011 598.83632,306.884634 597.904239,308.946067 C596.972158,311.007501 596.377563,313.22995 596.120437,315.613483 L628.228871,315.613483 Z M596.120437,321.604495 C596.377563,324.245706 597.020368,326.596994 598.048872,328.658427 C599.077375,330.719861 600.395126,332.459169 602.002162,333.876405 C603.609199,335.29364 605.409053,336.372655 607.401779,337.113483 C609.394505,337.854311 611.483621,338.224719 613.669191,338.224719 C617.14039,338.224719 620.113364,337.580531 622.5882,336.292135 C625.063037,335.003739 627.328924,333.29664 629.385932,331.170787 L634.014175,335.325843 C631.507197,338.160314 628.646715,340.431078 625.432641,342.138202 C622.218568,343.845327 618.233176,344.698877 613.476347,344.698877 C610.069429,344.698877 606.855404,344.070793 603.834175,342.814607 C600.812946,341.558421 598.177445,339.786903 595.927594,337.5 C593.677742,335.213097 591.893958,332.459192 590.576188,329.238203 C589.258418,326.017212 588.599543,322.474176 588.599543,318.608989 C588.599543,315.00148 589.194137,311.603387 590.383345,308.414606 C591.572552,305.225827 593.227775,302.455817 595.349064,300.104494 C597.470352,297.753172 599.993362,295.90113 602.918169,294.548314 C605.842976,293.195498 609.040931,292.519101 612.51213,292.519101 C616.176174,292.519101 619.45448,293.211603 622.347146,294.596629 C625.239812,295.981655 627.682471,297.865906 629.675197,300.249438 C631.667922,302.63297 633.178514,305.43519 634.207018,308.656179 C635.235521,311.87717 635.749766,315.323577 635.749766,318.995506 L635.749766,320.106742 C635.749766,320.52547 635.717625,321.024716 635.653344,321.604495 L596.120437,321.604495 Z M653.288544,294.451685 C655.73124,293.549808 657.466814,292.438583 658.495318,291.117977 C659.523821,289.797372 659.941644,288.106377 659.7488,286.044944 L656.277617,286.044944 L656.277617,275.898876 L665.148416,275.898876 L665.148416,284.595506 C665.148416,288.525113 664.280629,291.504484 662.54503,293.533708 C660.809429,295.562931 658.109649,296.996251 654.445604,297.833708 L653.288544,294.451685 Z M704.671348,344.505618 C701.071585,344.505618 697.439737,343.845325 693.775693,342.524719 C690.111649,341.204114 686.865484,339.416491 684.037098,337.161798 L687.797546,331.847191 C690.497368,333.908625 693.30964,335.486886 696.234447,336.582023 C699.159253,337.677159 702.100087,338.224719 705.057035,338.224719 C708.078263,338.224719 710.553063,337.516112 712.481507,336.098877 C714.409951,334.681641 715.374159,332.749076 715.374159,330.301124 L715.374159,330.107865 C715.374159,328.883889 715.036686,327.820978 714.361731,326.919101 C713.686776,326.017224 712.770778,325.228093 711.613712,324.551686 C710.456646,323.875277 709.122825,323.279403 707.61221,322.764045 C706.101595,322.248686 704.542793,321.765545 702.935757,321.314607 C701.007312,320.734829 699.062827,320.106745 697.102243,319.430337 C695.141657,318.753929 693.373944,317.90038 691.799048,316.869663 C690.224151,315.838946 688.938541,314.550569 687.942178,313.004494 C686.945816,311.45842 686.447642,309.525854 686.447642,307.206741 L686.447642,307.013483 C686.447642,304.88763 686.865465,302.93896 687.701124,301.167415 C688.536784,299.395871 689.709903,297.882029 691.220518,296.625842 C692.731132,295.369656 694.530986,294.403374 696.620134,293.726966 C698.709281,293.050558 700.975169,292.712359 703.417865,292.712359 C706.503376,292.712359 709.62098,293.211606 712.770772,294.210112 C715.920564,295.208619 718.781047,296.545309 721.352306,298.220224 L717.977545,303.824719 C715.663412,302.343064 713.236823,301.16742 710.697705,300.297753 C708.158587,299.428086 705.667717,298.993258 703.225022,298.993258 C700.268074,298.993258 697.921836,299.68576 696.186236,301.070786 C694.450637,302.455812 693.58285,304.179016 693.58285,306.240449 L693.58285,306.433708 C693.58285,307.593264 693.936392,308.607861 694.643489,309.477528 C695.350584,310.347195 696.298722,311.104116 697.487929,311.748314 C698.677136,312.392512 700.043097,312.972282 701.585853,313.48764 C703.128608,314.002999 704.73562,314.518349 706.406939,315.033707 C708.335383,315.613486 710.247728,316.257674 712.144031,316.966292 C714.040334,317.67491 715.759838,318.576774 717.302593,319.67191 C718.845349,320.767047 720.082748,322.087633 721.01483,323.633708 C721.946911,325.179783 722.412945,327.080138 722.412945,329.334832 L722.412945,329.52809 C722.412945,331.911623 721.946911,334.021339 721.01483,335.857304 C720.082748,337.693268 718.829278,339.255425 717.254382,340.54382 C715.679486,341.832216 713.815352,342.814604 711.661923,343.491011 C709.508493,344.167419 707.178325,344.505618 704.671348,344.505618 Z M813.029418,344.698877 C808.144019,344.698877 803.644386,343.797013 799.530377,341.993259 C795.41636,340.189504 791.848787,337.725484 788.827566,334.601124 C785.806336,331.476764 783.444027,327.788786 781.740569,323.537079 C780.037103,319.285372 779.185393,314.743844 779.185393,309.912359 L779.185393,309.719101 C779.185393,304.952036 780.037103,300.442718 781.740569,296.191011 C783.444027,291.939304 785.806336,288.219117 788.827566,285.030337 C791.848787,281.841556 795.4485,279.329222 799.626799,277.493258 C803.805089,275.657294 808.369003,274.739326 813.318683,274.739326 C816.404194,274.739326 819.184322,274.997001 821.659162,275.51236 C824.133994,276.027718 826.432021,276.75243 828.553315,277.686517 C830.674601,278.620604 832.635152,279.747933 834.43504,281.068539 C836.23492,282.389145 837.970495,283.854674 839.641813,285.465168 L834.43504,291.069663 C831.542373,288.364031 828.440839,286.141582 825.130344,284.402247 C821.819841,282.662913 817.850527,281.793258 813.222261,281.793258 C809.493931,281.793258 806.038859,282.501866 802.856926,283.919101 C799.674994,285.336337 796.910928,287.301111 794.564658,289.813483 C792.218381,292.325855 790.386383,295.273017 789.06862,298.655056 C787.750849,302.037096 787.091975,305.660655 787.091975,309.525842 L787.091975,309.719101 C787.091975,313.648708 787.750849,317.304477 789.06862,320.686517 C790.386383,324.068556 792.218381,327.015718 794.564658,329.52809 C796.910928,332.040462 799.674994,334.021341 802.856926,335.470787 C806.038859,336.920232 809.493931,337.644944 813.222261,337.644944 C817.850527,337.644944 821.835912,336.791395 825.178555,335.08427 C828.52119,333.377145 831.799497,330.977543 835.01357,327.885394 L840.0275,332.813483 C838.291901,334.617237 836.475974,336.243813 834.579673,337.693259 C832.683363,339.142704 830.64246,340.382766 828.456893,341.413483 C826.271319,342.4442 823.92508,343.249435 821.418108,343.829214 C818.911127,344.408992 816.114929,344.698877 813.029418,344.698877 Z M882.925187,338.031461 C885.625011,338.031461 888.099811,337.51611 890.349659,336.485393 C892.599515,335.454676 894.527926,334.069672 896.134963,332.330337 C897.741999,330.591003 898.995474,328.561809 899.89541,326.242697 C900.795354,323.923584 901.245314,321.443459 901.245314,318.802248 L901.245314,318.608989 C901.245314,315.903357 900.779284,313.374918 899.847199,311.023595 C898.915122,308.672273 897.613437,306.610871 895.942119,304.839326 C894.270802,303.067781 892.31025,301.666672 890.060394,300.635955 C887.810546,299.605238 885.367886,299.089887 882.732343,299.089887 C880.032527,299.089887 877.557727,299.605238 875.307871,300.635955 C873.058023,301.666672 871.145674,303.051676 869.570778,304.791011 C867.995882,306.530345 866.758486,308.575643 865.858542,310.926966 C864.958606,313.278289 864.508638,315.774519 864.508638,318.415731 L864.508638,318.608989 C864.508638,321.31462 864.974676,323.84306 865.906753,326.194382 C866.838837,328.545705 868.124445,330.591003 869.763622,332.330337 C871.402799,334.069672 873.347288,335.454676 875.597136,336.485393 C877.846992,337.51611 880.289652,338.031461 882.925187,338.031461 Z M882.732343,344.698877 C879.004021,344.698877 875.565011,344.006374 872.415219,342.621348 C869.265427,341.236323 866.53351,339.368177 864.219373,337.016854 C861.905244,334.665532 860.105387,331.927731 858.819756,328.803371 C857.534126,325.679011 856.891322,322.345336 856.891322,318.802248 L856.891322,318.608989 C856.891322,315.0659 857.534126,311.71612 858.819756,308.55955 C860.105387,305.40298 861.905244,302.63297 864.219373,300.249438 C866.53351,297.865906 869.281498,295.981655 872.46343,294.596629 C875.645363,293.211603 879.132583,292.519101 882.925187,292.519101 C886.653517,292.519101 890.108589,293.211603 893.290522,294.596629 C896.472454,295.981655 899.22045,297.849801 901.534579,300.201123 C903.848716,302.552446 905.648565,305.290246 906.934196,308.414606 C908.219826,311.538967 908.86263,314.872642 908.86263,318.415731 L908.86263,318.608989 C908.86263,322.152078 908.203756,325.501857 906.885985,328.658427 C905.568213,331.814997 903.752294,334.585007 901.438157,336.96854 C899.124028,339.352072 896.359962,341.236323 893.145889,342.621348 C889.931816,344.006374 886.460674,344.698877 882.732343,344.698877 Z M930.836811,293.582022 L938.261284,293.582022 L938.261284,343.539326 L930.836811,343.539326 L930.836811,293.582022 Z M930.354703,274.449438 L938.839814,274.449438 L938.839814,282.662921 L930.354703,282.662921 L930.354703,274.449438 Z M963.417374,293.582022 L970.841854,293.582022 L970.841854,302.278651 C972.513172,299.57302 974.698708,297.270047 977.398531,295.369663 C980.098347,293.469279 983.601639,292.519101 987.908499,292.519101 C990.929721,292.519101 993.613435,293.002242 995.959713,293.968539 C998.305983,294.934836 1000.29868,296.303736 1001.93786,298.075281 C1003.57704,299.846825 1004.8305,301.956542 1005.69831,304.404494 C1006.5661,306.852447 1007,309.558037 1007,312.521348 L1007,343.539326 L999.575527,343.539326 L999.575527,314.357303 C999.575527,309.719078 998.386334,306.047204 996.007924,303.341573 C993.629506,300.635941 990.222636,299.283146 985.787221,299.283146 C983.665928,299.283146 981.689306,299.653554 979.857285,300.394382 C978.025257,301.13521 976.434314,302.19812 975.08441,303.583146 C973.734498,304.968172 972.689937,306.626957 971.950704,308.55955 C971.211463,310.492145 970.841854,312.617966 970.841854,314.937078 L970.841854,343.539326 L963.417374,343.539326 L963.417374,293.582022 Z" id="The-People’s-Coin" fill-rule="nonzero"></path>
        </g>
    </g>
</svg>